<svg xmlns="http://www.w3.org/2000/svg" viewBox="0 0 279.55 158"><defs><style>.cls-1{fill:#8dc63f;}.cls-2{fill:#ffde17;}</style></defs><g id="Layer_2" data-name="Layer 2"><g id="Layer_1-2" data-name="Layer 1"><path class="cls-1" d="M83.72,20.68A33.85,33.85,0,0,0,75.84,7.15,22.13,22.13,0,0,0,66.16.92,22.41,22.41,0,0,0,55.38.43,32.35,32.35,0,0,0,44.1,5.2a59.26,59.26,0,0,0-11.28,9.74c-.46,0-13.48,18.6-13.06,18.29a143.07,143.07,0,0,0-7,14,176.16,176.16,0,0,0-6.6,18.68A160.5,160.5,0,0,0,1.77,85.4,159.35,159.35,0,0,0,0,104.57,99.73,99.73,0,0,0,1,122q3,20,13.18,29.59Q21.37,158,29.87,158a23.56,23.56,0,0,0,9.61-2.14,29.57,29.57,0,0,0,9.12-6.62q8.51-8.56,12.88-22.09A80.29,80.29,0,0,0,65,97.85q-.24-5.64-2.34-8.37t-4.38-2.43q-2.28.3-4.06,3.31c-1.19,2-1.67,4.9-1.42,8.66s.19,7.66.06,11.29a62,62,0,0,1-1.17,10.32,39.45,39.45,0,0,1-2.9,9,25.14,25.14,0,0,1-5,7.2q-6,6-12.75,6.62a15.63,15.63,0,0,1-12.27-4.48Q12.13,132.7,10,118.68a81.67,81.67,0,0,1-.74-14.4,120.88,120.88,0,0,1,1.61-16,137.18,137.18,0,0,1,3.82-16.55A144.92,144.92,0,0,1,20.5,55.62a108.71,108.71,0,0,1,7-14.21,99.67,99.67,0,0,1,7.88-11.49c.18,0,11.2-10.44,11.09-10.51q6.66-4.66,13-4.86a14.29,14.29,0,0,1,11.15,4.86,18.28,18.28,0,0,1,4.93,8.47,26.49,26.49,0,0,1,1,8.27,14.59,14.59,0,0,1-.5,3.21,5,5,0,0,1-1.84,3q-1.74,1-4.93-.58a13.18,13.18,0,0,0-4.81-1.68A5.82,5.82,0,0,0,58.36,44a5.46,5.46,0,0,0,.33,3.77A14.13,14.13,0,0,0,63,53.28a21,21,0,0,0,6.28,3.6,9.14,9.14,0,0,0,4.87.39A12.5,12.5,0,0,0,77.56,56a14.82,14.82,0,0,0,5.73-7,32.32,32.32,0,0,0,2.53-11.29A44.19,44.19,0,0,0,83.72,20.68Z"/><path class="cls-1" d="M80.91,97.57a7.23,7.23,0,0,1-4.13-1.2A9.78,9.78,0,0,1,73.07,92a14.29,14.29,0,0,1-1.17-6.41,28.67,28.67,0,0,1,2-9.32,53.37,53.37,0,0,1,4.88-9.81,55.17,55.17,0,0,1,6.91-8.82,34.33,34.33,0,0,1,8-6.36,16.59,16.59,0,0,1,9-2.41,12,12,0,0,1,7.56,3.18,4,4,0,0,1,1.41,2.41,3.56,3.56,0,0,1-.28,2.19,2.28,2.28,0,0,1-1.51,1.15,2.46,2.46,0,0,1-2.25-.82q-3.57-3.18-9.21.11a30.37,30.37,0,0,0-6.9,5.59,57.51,57.51,0,0,0-6.2,7.78,50.9,50.9,0,0,0-4.51,8.27,20.32,20.32,0,0,0-1.83,7,4.29,4.29,0,0,0,.38,2.53,3,3,0,0,0,.84.87c.75.51,1.86.29,3.34-.66a24.64,24.64,0,0,0,5-4.6,76.19,76.19,0,0,0,5.92-7.94A99.42,99.42,0,0,0,100.55,65c.12-.29.23-.53.32-.71l.33-.6a3.59,3.59,0,0,1,2.12-2,3,3,0,0,1,2.67.44,4,4,0,0,1,1.69,2.47,4.53,4.53,0,0,1-.37,3.12,7.56,7.56,0,0,0-.57,1.21,63.57,63.57,0,0,0-3.61,8.6,40.38,40.38,0,0,0-1.55,6.14,14,14,0,0,0-.19,3.83c.13.92.31,1.45.56,1.59s1,.06,2.12-.49a17,17,0,0,0,4.37-4,57.34,57.34,0,0,0,5.26-6.74q2.53-3.78,4.5-7a2.84,2.84,0,0,1,1.55-1.48,1.86,1.86,0,0,1,1.55.11,1.7,1.7,0,0,1,.8,1.31,3.45,3.45,0,0,1-.51,2.14,23.4,23.4,0,0,0-1.79,3.34q-1,2.25-2.44,5T114.26,87a44,44,0,0,1-3.57,5.27,19.34,19.34,0,0,1-4,3.83,6.82,6.82,0,0,1-8.41.06,3.67,3.67,0,0,1-1.17-1.48A14.13,14.13,0,0,1,96,91.87a17.37,17.37,0,0,1-.61-3.78,18.62,18.62,0,0,1,.32-4.66A45.73,45.73,0,0,1,93,88.2a31.83,31.83,0,0,1-3.57,4.55,21.44,21.44,0,0,1-4.13,3.45A8.18,8.18,0,0,1,80.91,97.57Z"/><path class="cls-1" d="M140,97.68a6.94,6.94,0,0,1-5.45-2.63q-3.86-4.48-1.41-12.17a35.31,35.31,0,0,1,2.25-5.53q1.41-2.79,2.92-5.64c.94-1.76,1.84-3.53,2.72-5.32a32,32,0,0,0,2-4.88,5.19,5.19,0,0,0,.47-2.9,3.44,3.44,0,0,0-.47-.93,1.41,1.41,0,0,0-.28-.28,1.3,1.3,0,0,0-.56.06A10.09,10.09,0,0,0,138.35,60a46.59,46.59,0,0,0-5.68,6.68q-3.28,4.5-7.47,11.57t-9.16,17a3.56,3.56,0,0,1-2.11,2,2.75,2.75,0,0,1-2.58-.44,3.67,3.67,0,0,1-1.74-2.35,4.76,4.76,0,0,1,.23-3.13l17.1-39.45a3.27,3.27,0,0,1,2-2,3.4,3.4,0,0,1,2.68.22,4,4,0,0,1,2.58,3.17,7.25,7.25,0,0,1-.61,4.5,21.21,21.21,0,0,1,7.32-6.8q3.76-1.86,6.58.33a7.2,7.2,0,0,1,1.6,1.81,8.85,8.85,0,0,1,1.13,2.74,13.93,13.93,0,0,1,.28,3.67,21.23,21.23,0,0,1-.85,4.71,36.29,36.29,0,0,1-2.35,5.87q-1.5,3-3.1,6c-.5,1-1.09,2.21-1.78,3.56s-1.32,2.67-1.88,3.95a21.64,21.64,0,0,0-1.22,3.45,2.44,2.44,0,0,0,.19,2.19.94.94,0,0,0,.18.17,1.9,1.9,0,0,0,.57,0,7.09,7.09,0,0,0,3.33-1.64A35.45,35.45,0,0,0,148,83.76,68.2,68.2,0,0,0,152.77,78a73.75,73.75,0,0,0,4.6-7,4.36,4.36,0,0,1,1.84-1.86A1.64,1.64,0,0,1,160.8,69a1.77,1.77,0,0,1,.71,1.43,4.24,4.24,0,0,1-.76,2.46l-1.22,2.52c-.62,1.32-1.4,2.85-2.34,4.61s-2,3.63-3.25,5.64A44.44,44.44,0,0,1,150,91.21a29.41,29.41,0,0,1-4.41,4.33,8.91,8.91,0,0,1-4.66,2A2.87,2.87,0,0,1,140,97.68Z"/><path class="cls-1" d="M162.35,97.57a8,8,0,0,1-4.23-1.2q-4.69-3.08-4.5-10.42a30.49,30.49,0,0,1,1.83-9.2,60.89,60.89,0,0,1,4.74-10.3,56.28,56.28,0,0,1,6.86-9.21,29.07,29.07,0,0,1,7.32-5.92q7.8-4.38,13.91.33,1.31-2.85,2.63-5.7t2.39-5.42c.66-1.58,2.76-5,2.5-6.74-.38-2.71-1.31-1.48-3.85-1.68a4,4,0,0,1-3.27-5.28c.67-1.67,2.4-2.64,4.1-3.24a15.59,15.59,0,0,1,7.49-.76A4.7,4.7,0,0,1,203.15,24a5.1,5.1,0,0,1,2.76,5c-.35,2.31-3.74,8.58-3.74,8.58s-2.28,6.28-3.66,9.3q-3.75,8.28-9.86,20.44l-.19.44a15.67,15.67,0,0,0-.75,1.53c-.25.59-.53,1.17-.84,1.76a44.09,44.09,0,0,0-4,12.49,12.54,12.54,0,0,0-.24,4c.16.92.33,1.45.52,1.59s1,.06,2.11-.49a16.84,16.84,0,0,0,4.37-4,52.29,52.29,0,0,0,5.21-6.74q2.49-3.78,4.56-7A3.13,3.13,0,0,1,201,69.35a1.76,1.76,0,0,1,1.51.11,2,2,0,0,1,.8,1.31,3.38,3.38,0,0,1-.57,2.25,35.52,35.52,0,0,0-1.92,3.34q-1.19,2.25-2.68,5T194.85,87a52.71,52.71,0,0,1-3.66,5.27,22,22,0,0,1-3.85,3.83,6.44,6.44,0,0,1-3.85,1.48,6.88,6.88,0,0,1-4-1.42,8.47,8.47,0,0,1-2.4-2.63,12,12,0,0,1-1.46-4.83A39,39,0,0,1,169.07,95,11.29,11.29,0,0,1,162.35,97.57ZM184.8,58.88c-.06,0-.16-.07-.28-.22l-.8-.6a3.4,3.4,0,0,0-1.36-.55,5.38,5.38,0,0,0-2,.06,10.72,10.72,0,0,0-2.87,1.09,24.45,24.45,0,0,0-6.1,5.15,47.67,47.67,0,0,0-5.36,7.4,50.31,50.31,0,0,0-3.8,8,22.39,22.39,0,0,0-1.55,6.9,4.27,4.27,0,0,0,.28,2.36c.25.33.44.57.56.71.76.51,1.87.29,3.34-.66a24.13,24.13,0,0,0,5-4.76,83.34,83.34,0,0,0,6-8.39,101,101,0,0,0,6.34-11.61l.47-.77Z"/><path class="cls-1" d="M199.83,70.94q1.3-2.41,2.63-5.26c.87-1.9,1.69-3.84,2.44-5.81s1.39-3.91,1.93-5.81a36.71,36.71,0,0,0,1.08-5,5.54,5.54,0,0,1,1.41-3.34,2.77,2.77,0,0,1,2.25-1,2.24,2.24,0,0,1,1.78,1.53,6.89,6.89,0,0,1,0,4.27,14.4,14.4,0,0,1,4.33.94,7.12,7.12,0,0,1,3.57,3.12,11.12,11.12,0,0,1,1.12,6.85,28.9,28.9,0,0,1-3.19,9.37q-2.82,5.48-4.37,8.71a30.83,30.83,0,0,0-2.21,6,15.89,15.89,0,0,0-.51,2.79,1.85,1.85,0,0,0,.14,1.15,4.42,4.42,0,0,0,1.31-.49,12.14,12.14,0,0,0,2.87-2.36A47.67,47.67,0,0,0,220.87,81a91.66,91.66,0,0,0,6-10,4.82,4.82,0,0,1,1.79-2,1.79,1.79,0,0,1,1.64-.16,1.54,1.54,0,0,1,.84,1.31,4.24,4.24,0,0,1-.7,2.52q-1.5,2.85-3.66,7.13t-4.61,8.22a46.93,46.93,0,0,1-5,6.79c-1.72,1.9-3.37,2.85-4.93,2.85a5.92,5.92,0,0,1-4.6-2,8.81,8.81,0,0,1-2.54-4.77,15.56,15.56,0,0,1,.37-6.25,49,49,0,0,1,2.82-8q2-4.5,4.79-10.08A19.09,19.09,0,0,0,215.23,61c.13-1.1.19-1.68.19-1.76a3.15,3.15,0,0,0-1.27-.49,11.65,11.65,0,0,0-4.08.27q-.94,2.09-2,4.28c-.69,1.46-1.34,2.83-2,4.11s-1.2,2.43-1.74,3.45A20.9,20.9,0,0,1,203.12,73a3.79,3.79,0,0,1-1.7,1.59,1.9,1.9,0,0,1-1.59.06,1.45,1.45,0,0,1-.75-1.27A4.42,4.42,0,0,1,199.83,70.94Z"/><path class="cls-1" d="M270.6,69.58a1.48,1.48,0,0,1,.29-.12,1.87,1.87,0,0,1,1.55.11,1.73,1.73,0,0,1,.8,1.31,3.46,3.46,0,0,1-.52,2.14,23.54,23.54,0,0,0-1.78,3.34q-1,2.25-2.45,5T265.39,87a41.79,41.79,0,0,1-3.57,5.27,19.34,19.34,0,0,1-4,3.83,6.82,6.82,0,0,1-8.41.06,3.85,3.85,0,0,1-1.17-1.48,14.13,14.13,0,0,1-1.08-2.8,18,18,0,0,1-.61-3.78,18.66,18.66,0,0,1,.33-4.66,44.14,44.14,0,0,1-2.73,4.77,31.13,31.13,0,0,1-3.57,4.55,21.44,21.44,0,0,1-4.13,3.45,8.17,8.17,0,0,1-4.41,1.37,7.24,7.24,0,0,1-4.14-1.2A9.84,9.84,0,0,1,224.2,92,14.57,14.57,0,0,1,223,85.63a28.67,28.67,0,0,1,2-9.32,53.42,53.42,0,0,1,4.89-9.81,54.55,54.55,0,0,1,6.9-8.82,34.74,34.74,0,0,1,8-6.36,16.59,16.59,0,0,1,9-2.41,12,12,0,0,1,7.56,3.18,3.94,3.94,0,0,1,1.41,2.41,3.49,3.49,0,0,1-.28,2.19,2.24,2.24,0,0,1-1.5,1.15,2.49,2.49,0,0,1-2.26-.82q-3.57-3.18-9.2.11a30.19,30.19,0,0,0-6.91,5.59,57.44,57.44,0,0,0-6.19,7.78,50.14,50.14,0,0,0-4.51,8.27,20.6,20.6,0,0,0-1.84,7,4.37,4.37,0,0,0,.38,2.53,3,3,0,0,0,.85.87q1.13.77,3.33-.66a24.92,24.92,0,0,0,5-4.6,76.19,76.19,0,0,0,5.92-7.94A101.11,101.11,0,0,0,251.68,65a7.17,7.17,0,0,1,.33-.71c.09-.18.2-.39.33-.6a3.58,3.58,0,0,1,2.11-2,3,3,0,0,1,2.68.44,4,4,0,0,1,1.69,2.47,4.53,4.53,0,0,1-.38,3.12,6.68,6.68,0,0,0-.56,1.21,63.77,63.77,0,0,0-3.62,8.6,41.6,41.6,0,0,0-1.55,6.14,14.45,14.45,0,0,0-.19,3.83q.19,1.38.57,1.59c.31.22,1,.06,2.11-.49a16.84,16.84,0,0,0,4.37-4,56.3,56.3,0,0,0,5.26-6.74q2.54-3.78,4.51-7a7.54,7.54,0,0,1,6.42-4.31,4,4,0,0,1,1.54.12A3,3,0,0,1,278.74,68a5.18,5.18,0,0,1,.67,4,4.44,4.44,0,0,1-3.55,3.46,3.18,3.18,0,0,1-3.53-3"/><path class="cls-2" d="M80.91,106c7.5,3.06,15.06,5.68,22.68,8,3.81,1.16,7.64,2.19,11.45,3.23,1.92.47,3.86.9,5.76,1.4s3.85.84,5.77,1.28l2.89.61,2.9.52,5.78,1.09c3.88.58,7.72,1.37,11.6,1.85a163.45,163.45,0,0,0,23.37,2c1.95,0,3.89-.14,5.83-.2l2.92-.13,2.91-.3,5.81-.65,5.79-.93c7.7-1.33,15.41-2.75,23.11-4.48a413.08,413.08,0,0,0,46-13.3,144.87,144.87,0,0,1-21,12.34l-5.54,2.6c-1.86.83-3.75,1.59-5.63,2.39s-3.8,1.52-5.72,2.23l-2.88,1c-1,.35-1.94.65-2.91,1a128.79,128.79,0,0,1-23.95,5.75l-6.15.77c-2.06.18-4.12.3-6.18.45l-3.09.23-3.11.06c-2.07.05-4.15.12-6.21.14-8.24-.18-16.5-.31-24.67-1.44-4.11-.41-8.14-1.3-12.18-2.11-2-.43-4-1-6-1.54-1-.26-2-.53-3-.83l-2.93-1a153,153,0,0,1-22.74-9.24A117.85,117.85,0,0,1,80.91,106Z"/></g></g></svg>